# xmcd
#
# Track frame offsets:
#	150
#	16934
#	33789
#	50655
#	67886
#	85191
#	103250
#	120729
#	137956
#	155522
#	172704
#	190236
#
# Disc length: 2766 seconds
#
# Revision: 1
# Processed by: cddbd v1.5.2PL0 Copyright (c) Steve Scherf et al.
# Submitted via: audiograbber 1.83.01
#
DISCID=970acc0c
DTITLE=Johnny Preston - Square Dance Singing Calls 2007 "My Favorites"
DYEAR=1900
DGENRE=
TTITLE0=Cheesburger In Paradise
TTITLE1=Down In Mexico
TTITLE2=Do You Love Me
TTITLE3=Waltzing Matilda
TTITLE4=I Saw Her Standing There
TTITLE5=Summerwind
TTITLE6=Love Me Over Again
TTITLE7=Come Monday
TTITLE8=Where Have All The Flowers Gone
TTITLE9=Dancing On A Saturday Night
TTITLE10=Loving Her Was Easier
TTITLE11=Easy Come Easy Go
EXTD=
EXTT0=
EXTT1=
EXTT2=
EXTT3=
EXTT4=
EXTT5=
EXTT6=
EXTT7=
EXTT8=
EXTT9=
EXTT10=
EXTT11=
PLAYORDER=
